<?xml version="1.0" encoding="UTF-8" standalone="no"?><!-- Generator: Gravit.io --><svg xmlns="http://www.w3.org/2000/svg" xmlns:xlink="http://www.w3.org/1999/xlink" style="isolation:isolate" viewBox="0 0 119.34 34.4" width="119.34pt" height="34.4pt"><defs><clipPath id="_clipPath_6ZFgcFOECJwBg4OAW8h2soXLBfkPRVRk"><rect width="119.34" height="34.4"/></clipPath></defs><g clip-path="url(#_clipPath_6ZFgcFOECJwBg4OAW8h2soXLBfkPRVRk)"><path d=" M 16.32 31.56 L 20.5 20 L 22.26 20 L 17.02 34.4 L 15.6 34.4 L 11.12 22.1 L 6.64 34.4 L 5.24 34.4 L 0 20 L 1.72 20 L 5.94 31.56 L 10.14 20 L 12.1 20 L 16.32 31.56 Z  M 25.9 20 L 25.9 20 L 35.5 20 L 35.5 20 Q 36.5 20 37.2 20.7 L 37.2 20.7 L 37.2 20.7 Q 37.9 21.4 37.9 22.4 L 37.9 22.4 L 37.9 32 L 37.9 32 Q 37.9 33 37.2 33.7 L 37.2 33.7 L 37.2 33.7 Q 36.5 34.4 35.5 34.4 L 35.5 34.4 L 25.9 34.4 L 25.9 34.4 Q 24.9 34.4 24.2 33.7 L 24.2 33.7 L 24.2 33.7 Q 23.5 33 23.5 32 L 23.5 32 L 23.5 22.4 L 23.5 22.4 Q 23.5 21.4 24.2 20.7 L 24.2 20.7 L 24.2 20.7 Q 24.9 20 25.9 20 Z  M 25.9 32.78 L 25.9 32.78 L 35.5 32.78 L 35.5 32.78 Q 35.82 32.78 36.05 32.55 L 36.05 32.55 L 36.05 32.55 Q 36.28 32.32 36.28 32 L 36.28 32 L 36.28 22.4 L 36.28 22.4 Q 36.28 22.08 36.05 21.85 L 36.05 21.85 L 36.05 21.85 Q 35.82 21.62 35.5 21.62 L 35.5 21.62 L 25.9 21.62 L 25.9 21.62 Q 25.58 21.62 25.35 21.85 L 25.35 21.85 L 25.35 21.85 Q 25.12 22.08 25.12 22.4 L 25.12 22.4 L 25.12 32 L 25.12 32 Q 25.12 32.32 25.35 32.55 L 25.35 32.55 L 25.35 32.55 Q 25.58 32.78 25.9 32.78 Z  M 54.48 22.42 L 54.48 22.42 L 54.48 26.64 L 54.48 26.64 Q 54.48 27.64 53.78 28.34 L 53.78 28.34 L 53.78 28.34 Q 53.08 29.04 52.08 29.04 L 52.08 29.04 L 49.88 29.04 L 54.4 34.4 L 52.26 34.4 L 47.76 29.04 L 42.48 29.04 L 42.48 29.04 Q 42.3 29.04 41.7 28.96 L 41.7 28.96 L 41.7 34.4 L 40.08 34.4 L 40.08 20.02 L 52.08 20.02 L 52.08 20.02 Q 53.08 20.02 53.78 20.72 L 53.78 20.72 L 53.78 20.72 Q 54.48 21.42 54.48 22.42 Z  M 42.48 27.4 L 42.48 27.4 L 52.08 27.4 L 52.08 27.4 Q 52.4 27.4 52.62 27.18 L 52.62 27.18 L 52.62 27.18 Q 52.84 26.96 52.84 26.64 L 52.84 26.64 L 52.84 22.42 L 52.84 22.42 Q 52.84 22.1 52.62 21.87 L 52.62 21.87 L 52.62 21.87 Q 52.4 21.64 52.08 21.64 L 52.08 21.64 L 42.48 21.64 L 42.48 21.64 Q 42.16 21.64 41.93 21.87 L 41.93 21.87 L 41.93 21.87 Q 41.7 22.1 41.7 22.42 L 41.7 22.42 L 41.7 26.64 L 41.7 26.64 Q 41.7 26.96 41.93 27.18 L 41.93 27.18 L 41.93 27.18 Q 42.16 27.4 42.48 27.4 Z  M 62.9 26.38 L 68.26 20 L 70.34 20 L 64.32 27.2 L 70.36 34.4 L 68.26 34.4 L 62.9 28.02 L 58.26 28.02 L 58.26 34.4 L 56.62 34.4 L 56.62 20 L 58.26 20 L 58.26 26.38 L 62.9 26.38 Z  M 74.9 20 L 74.9 20 L 84.5 20 L 84.5 20 Q 85.5 20 86.2 20.7 L 86.2 20.7 L 86.2 20.7 Q 86.9 21.4 86.9 22.4 L 86.9 22.4 L 86.9 32 L 86.9 32 Q 86.9 33 86.2 33.7 L 86.2 33.7 L 86.2 33.7 Q 85.5 34.4 84.5 34.4 L 84.5 34.4 L 74.9 34.4 L 74.9 34.4 Q 73.9 34.4 73.2 33.7 L 73.2 33.7 L 73.2 33.7 Q 72.5 33 72.5 32 L 72.5 32 L 72.5 22.4 L 72.5 22.4 Q 72.5 21.4 73.2 20.7 L 73.2 20.7 L 73.2 20.7 Q 73.9 20 74.9 20 Z  M 74.9 32.78 L 74.9 32.78 L 84.5 32.78 L 84.5 32.78 Q 84.82 32.78 85.05 32.55 L 85.05 32.55 L 85.05 32.55 Q 85.28 32.32 85.28 32 L 85.28 32 L 85.28 22.4 L 85.28 22.4 Q 85.28 22.08 85.05 21.85 L 85.05 21.85 L 85.05 21.85 Q 84.82 21.62 84.5 21.62 L 84.5 21.62 L 74.9 21.62 L 74.9 21.62 Q 74.58 21.62 74.35 21.85 L 74.35 21.85 L 74.35 21.85 Q 74.12 22.08 74.12 22.4 L 74.12 22.4 L 74.12 32 L 74.12 32 Q 74.12 32.32 74.35 32.55 L 74.35 32.55 L 74.35 32.55 Q 74.58 32.78 74.9 32.78 Z  M 101.84 32 L 101.84 32 L 101.84 20 L 103.46 20 L 103.46 32 L 103.46 32 Q 103.46 33 102.76 33.7 L 102.76 33.7 L 102.76 33.7 Q 102.06 34.4 101.06 34.4 L 101.06 34.4 L 91.46 34.4 L 91.46 34.4 Q 90.46 34.4 89.76 33.7 L 89.76 33.7 L 89.76 33.7 Q 89.06 33 89.06 32 L 89.06 32 L 89.06 20 L 90.68 20 L 90.68 32 L 90.68 32 Q 90.68 32.32 90.91 32.55 L 90.91 32.55 L 90.91 32.55 Q 91.14 32.78 91.46 32.78 L 91.46 32.78 L 101.06 32.78 L 101.06 32.78 Q 101.38 32.78 101.61 32.55 L 101.61 32.55 L 101.61 32.55 Q 101.84 32.32 101.84 32 Z  M 104.94 21.62 L 104.94 20 L 119.34 20 L 119.34 21.62 L 112.96 21.62 L 112.96 34.4 L 111.34 34.4 L 111.34 21.62 L 104.94 21.62 Z  M 37.29 0 L 50.43 0 L 50.43 1.62 L 38.91 1.62 L 38.91 6.38 L 48.17 6.38 L 48.17 8.02 L 38.91 8.02 L 38.91 12.78 L 50.43 12.78 L 50.43 14.4 L 37.29 14.4 L 37.29 0 Z  M 59.23 7.04 L 64.75 0 L 66.65 0 L 60.03 8.98 L 60.03 14.4 L 58.41 14.4 L 58.41 8.98 L 51.79 0 L 53.65 0 L 59.23 7.04 Z  M 68.73 0 L 81.87 0 L 81.87 1.62 L 70.35 1.62 L 70.35 6.38 L 79.61 6.38 L 79.61 8.02 L 70.35 8.02 L 70.35 12.78 L 81.87 12.78 L 81.87 14.4 L 68.73 14.4 L 68.73 0 Z " fill="rgb(82,85,89)"/></g></svg>