<?xml version="1.0" encoding="UTF-8" standalone="no"?><!-- Generator: Gravit.io --><svg xmlns="http://www.w3.org/2000/svg" xmlns:xlink="http://www.w3.org/1999/xlink" style="isolation:isolate" viewBox="0 0 368.297 31" width="368.297pt" height="31pt"><defs><clipPath id="_clipPath_4Q71XnMLqPDeprCIKsqML0sS23wZnNFk"><rect width="368.297" height="31"/></clipPath></defs><g clip-path="url(#_clipPath_4Q71XnMLqPDeprCIKsqML0sS23wZnNFk)"><path d=" M 146.518 24.886 L 155.517 0 L 159.306 0 L 148.025 31 L 144.968 31 L 135.324 4.521 L 125.679 31 L 122.665 31 L 111.385 0 L 115.088 0 L 124.172 24.886 L 133.214 0 L 137.433 0 L 146.518 24.886 Z  M 167.142 0 L 167.142 0 L 187.808 0 L 187.808 0 Q 189.961 0 191.468 1.507 L 191.468 1.507 L 191.468 1.507 Q 192.975 3.014 192.975 5.167 L 192.975 5.167 L 192.975 25.833 L 192.975 25.833 Q 192.975 27.986 191.468 29.493 L 191.468 29.493 L 191.468 29.493 Q 189.961 31 187.808 31 L 187.808 31 L 167.142 31 L 167.142 31 Q 164.989 31 163.482 29.493 L 163.482 29.493 L 163.482 29.493 Q 161.975 27.986 161.975 25.833 L 161.975 25.833 L 161.975 5.167 L 161.975 5.167 Q 161.975 3.014 163.482 1.507 L 163.482 1.507 L 163.482 1.507 Q 164.989 0 167.142 0 Z  M 167.142 27.512 L 167.142 27.512 L 187.808 27.512 L 187.808 27.512 Q 188.497 27.512 188.992 27.017 L 188.992 27.017 L 188.992 27.017 Q 189.487 26.522 189.487 25.833 L 189.487 25.833 L 189.487 5.167 L 189.487 5.167 Q 189.487 4.478 188.992 3.983 L 188.992 3.983 L 188.992 3.983 Q 188.497 3.488 187.808 3.488 L 187.808 3.488 L 167.142 3.488 L 167.142 3.488 Q 166.453 3.488 165.958 3.983 L 165.958 3.983 L 165.958 3.983 Q 165.463 4.478 165.463 5.167 L 165.463 5.167 L 165.463 25.833 L 165.463 25.833 Q 165.463 26.522 165.958 27.017 L 165.958 27.017 L 165.958 27.017 Q 166.453 27.512 167.142 27.512 Z  M 228.668 5.21 L 228.668 5.21 L 228.668 14.294 L 228.668 14.294 Q 228.668 16.447 227.161 17.954 L 227.161 17.954 L 227.161 17.954 Q 225.654 19.461 223.501 19.461 L 223.501 19.461 L 218.765 19.461 L 228.496 31 L 223.889 31 L 214.201 19.461 L 202.835 19.461 L 202.835 19.461 Q 202.447 19.461 201.156 19.289 L 201.156 19.289 L 201.156 31 L 197.668 31 L 197.668 0.043 L 223.501 0.043 L 223.501 0.043 Q 225.654 0.043 227.161 1.55 L 227.161 1.55 L 227.161 1.55 Q 228.668 3.057 228.668 5.21 Z  M 202.835 15.931 L 202.835 15.931 L 223.501 15.931 L 223.501 15.931 Q 224.19 15.931 224.664 15.457 L 224.664 15.457 L 224.664 15.457 Q 225.137 14.983 225.137 14.294 L 225.137 14.294 L 225.137 5.21 L 225.137 5.21 Q 225.137 4.521 224.664 4.026 L 224.664 4.026 L 224.664 4.026 Q 224.19 3.531 223.501 3.531 L 223.501 3.531 L 202.835 3.531 L 202.835 3.531 Q 202.146 3.531 201.651 4.026 L 201.651 4.026 L 201.651 4.026 Q 201.156 4.521 201.156 5.21 L 201.156 5.21 L 201.156 14.294 L 201.156 14.294 Q 201.156 14.983 201.651 15.457 L 201.651 15.457 L 201.651 15.457 Q 202.146 15.931 202.835 15.931 Z  M 246.794 13.735 L 258.333 0 L 262.811 0 L 249.851 15.5 L 262.854 31 L 258.333 31 L 246.794 17.265 L 236.806 17.265 L 236.806 31 L 233.275 31 L 233.275 0 L 236.806 0 L 236.806 13.735 L 246.794 13.735 Z  M 272.628 0 L 272.628 0 L 293.294 0 L 293.294 0 Q 295.447 0 296.954 1.507 L 296.954 1.507 L 296.954 1.507 Q 298.461 3.014 298.461 5.167 L 298.461 5.167 L 298.461 25.833 L 298.461 25.833 Q 298.461 27.986 296.954 29.493 L 296.954 29.493 L 296.954 29.493 Q 295.447 31 293.294 31 L 293.294 31 L 272.628 31 L 272.628 31 Q 270.475 31 268.968 29.493 L 268.968 29.493 L 268.968 29.493 Q 267.461 27.986 267.461 25.833 L 267.461 25.833 L 267.461 5.167 L 267.461 5.167 Q 267.461 3.014 268.968 1.507 L 268.968 1.507 L 268.968 1.507 Q 270.475 0 272.628 0 Z  M 272.628 27.512 L 272.628 27.512 L 293.294 27.512 L 293.294 27.512 Q 293.983 27.512 294.478 27.017 L 294.478 27.017 L 294.478 27.017 Q 294.974 26.522 294.974 25.833 L 294.974 25.833 L 294.974 5.167 L 294.974 5.167 Q 294.974 4.478 294.478 3.983 L 294.478 3.983 L 294.478 3.983 Q 293.983 3.488 293.294 3.488 L 293.294 3.488 L 272.628 3.488 L 272.628 3.488 Q 271.939 3.488 271.444 3.983 L 271.444 3.983 L 271.444 3.983 Q 270.949 4.478 270.949 5.167 L 270.949 5.167 L 270.949 25.833 L 270.949 25.833 Q 270.949 26.522 271.444 27.017 L 271.444 27.017 L 271.444 27.017 Q 271.939 27.512 272.628 27.512 Z  M 330.624 25.833 L 330.624 25.833 L 330.624 0 L 334.111 0 L 334.111 25.833 L 334.111 25.833 Q 334.111 27.986 332.604 29.493 L 332.604 29.493 L 332.604 29.493 Q 331.097 31 328.944 31 L 328.944 31 L 308.278 31 L 308.278 31 Q 306.125 31 304.618 29.493 L 304.618 29.493 L 304.618 29.493 Q 303.111 27.986 303.111 25.833 L 303.111 25.833 L 303.111 0 L 306.599 0 L 306.599 25.833 L 306.599 25.833 Q 306.599 26.522 307.094 27.017 L 307.094 27.017 L 307.094 27.017 Q 307.589 27.512 308.278 27.512 L 308.278 27.512 L 328.944 27.512 L 328.944 27.512 Q 329.633 27.512 330.128 27.017 L 330.128 27.017 L 330.128 27.017 Q 330.624 26.522 330.624 25.833 Z  M 337.297 3.488 L 337.297 0 L 368.297 0 L 368.297 3.488 L 354.562 3.488 L 354.562 31 L 351.075 31 L 351.075 3.488 L 337.297 3.488 Z  M 0 0 L 28.287 0 L 28.287 3.488 L 3.488 3.488 L 3.488 13.735 L 23.422 13.735 L 23.422 17.265 L 3.488 17.265 L 3.488 27.512 L 28.287 27.512 L 28.287 31 L 0 31 L 0 0 Z  M 47.232 15.156 L 59.115 0 L 63.206 0 L 48.954 19.332 L 48.954 31 L 45.467 31 L 45.467 19.332 L 31.215 0 L 35.219 0 L 47.232 15.156 Z  M 67.683 0 L 95.971 0 L 95.971 3.488 L 71.171 3.488 L 71.171 13.735 L 91.106 13.735 L 91.106 17.265 L 71.171 17.265 L 71.171 27.512 L 95.971 27.512 L 95.971 31 L 67.683 31 L 67.683 0 Z " fill="rgb(82,85,89)"/></g></svg>