<?xml version="1.0" encoding="UTF-8" standalone="no"?><!-- Generator: Gravit.io --><svg xmlns="http://www.w3.org/2000/svg" xmlns:xlink="http://www.w3.org/1999/xlink" style="isolation:isolate" viewBox="0 0 666.7 389.6" width="666.7pt" height="389.6pt"><defs><clipPath id="_clipPath_RSvnDKtq9RvmjJuGLB2Dz1cSSHSRVntu"><rect width="666.7" height="389.6"/></clipPath></defs><g clip-path="url(#_clipPath_RSvnDKtq9RvmjJuGLB2Dz1cSSHSRVntu)"><g><g><circle vector-effect="non-scaling-stroke" cx="482.3597796566942" cy="278.5999999994109" r="101.00000000000011" fill="rgb(136,204,0)"/><circle vector-effect="non-scaling-stroke" cx="482.3597796566942" cy="278.59999999941095" r="89.1538822425521" fill="rgb(84,145,16)"/><circle vector-effect="non-scaling-stroke" cx="482.3597796566942" cy="278.59999999941095" r="86.55577268884761" fill="rgb(255,255,255)"/><clipPath id="_clipPath_yAI3UgZKOn85Z24nTuTLFvbHKxhysGyl"><circle vector-effect="non-scaling-stroke" cx="482.3597796566942" cy="278.59999999941095" r="86.55577268884761" fill="rgb(255,255,255)"/></clipPath><g clip-path="url(#_clipPath_yAI3UgZKOn85Z24nTuTLFvbHKxhysGyl)"><g><radialGradient id="_rgradient_4" fx="0.49999979612112244" fy="0.4999981560039713" cx="0.49999979612112244" cy="0.4999981560039713" r="1" gradientTransform="matrix(305.865,0,0,305.865,300.032,94.53)" gradientUnits="userSpaceOnUse"><stop offset="0%" stop-opacity="1" style="stop-color:rgb(255,255,255)"/><stop offset="100%" stop-opacity="1" style="stop-color:rgb(214,237,178)"/></radialGradient><circle vector-effect="non-scaling-stroke" cx="452.9643420161724" cy="247.46306401384552" r="152.93265981654383" fill="url(#_rgradient_4)"/><g><circle vector-effect="non-scaling-stroke" cx="482.3597796566942" cy="278.5999999994109" r="39.9884753726767" fill="rgb(130,195,0)"/><circle vector-effect="non-scaling-stroke" cx="482.17928373750055" cy="277.01490065803966" r="25.13518144317777" fill="rgb(77,124,32)"/><circle vector-effect="non-scaling-stroke" cx="491.25944177021324" cy="266.8249589485081" r="8.410743607787879" fill="rgb(255,255,255)"/><circle vector-effect="non-scaling-stroke" cx="482.17928373750055" cy="258.41421534072" r="3.364297443115163" fill="rgb(255,255,255)"/><circle vector-effect="non-scaling-stroke" cx="475.177014119213" cy="258.41421534072" r="1.6821487215576099" fill="rgb(255,255,255)"/></g></g></g></g><g><circle vector-effect="non-scaling-stroke" cx="183.3597796566944" cy="278.59999999941095" r="101.00000000000011" fill="rgb(136,204,0)"/><circle vector-effect="non-scaling-stroke" cx="183.3597796566944" cy="278.59999999941107" r="89.15388224255213" fill="rgb(84,145,16)"/><circle vector-effect="non-scaling-stroke" cx="183.35977965669412" cy="278.5999999994109" r="86.55577268884764" fill="rgb(255,255,255)"/><clipPath id="_clipPath_MIEPW1lXzyvvf1wk6UOSnEiCBXkAGzFq"><circle vector-effect="non-scaling-stroke" cx="183.35977965669412" cy="278.5999999994109" r="86.55577268884764" fill="rgb(255,255,255)"/></clipPath><g clip-path="url(#_clipPath_MIEPW1lXzyvvf1wk6UOSnEiCBXkAGzFq)"><g><radialGradient id="_rgradient_5" fx="0.49999979612112255" fy="0.49999815600397146" cx="0.49999979612112255" cy="0.49999815600397146" r="1" gradientTransform="matrix(305.865,0,0,305.865,1.032,94.53)" gradientUnits="userSpaceOnUse"><stop offset="0%" stop-opacity="1" style="stop-color:rgb(255,255,255)"/><stop offset="100%" stop-opacity="1" style="stop-color:rgb(214,237,178)"/></radialGradient><circle vector-effect="non-scaling-stroke" cx="153.96434201617234" cy="247.46306401384547" r="152.93265981654383" fill="url(#_rgradient_5)"/><g><circle vector-effect="non-scaling-stroke" cx="183.35977965669412" cy="278.59999999941084" r="39.988475372676675" fill="rgb(130,195,0)"/><circle vector-effect="non-scaling-stroke" cx="183.17928373750055" cy="277.0149006580396" r="25.13518144317777" fill="rgb(77,124,32)"/><circle vector-effect="non-scaling-stroke" cx="192.25944177021313" cy="266.824958948508" r="8.410743607787907" fill="rgb(255,255,255)"/><circle vector-effect="non-scaling-stroke" cx="183.17928373750055" cy="258.4142153407199" r="3.364297443115163" fill="rgb(255,255,255)"/><circle vector-effect="non-scaling-stroke" cx="176.17701411921303" cy="258.4142153407199" r="1.6821487215576099" fill="rgb(255,255,255)"/></g></g></g></g></g><g><path d=" M 305.085 102.407 C 320.772 102.708 333.396 115.518 333.395 131.277 L 333.395 239.817 C 333.395 250.505 332.158 261.157 329.71 271.561 L 310.575 352.886 C 306.892 368.538 292.925 379.6 276.847 379.6 L 134.212 379.6 C 123.127 379.6 112.71 374.296 106.19 365.33 L 15.523 240.66 C 6.143 227.762 8.995 209.704 21.891 200.324 C 34.789 190.944 52.848 193.796 62.227 206.693 L 85.073 238.108 L 85.073 67.752 C 85.073 51.993 97.697 39.183 113.384 38.883 C 129.571 38.573 142.822 52.131 142.822 68.323 L 142.822 194.801 L 148.597 194.801 L 148.597 38.878 C 148.597 23.119 161.221 10.308 176.908 10.008 C 193.096 9.698 206.347 23.256 206.347 39.448 L 206.347 194.801 L 212.122 194.801 L 212.122 67.031 C 212.122 51.271 224.746 38.461 240.433 38.161 C 256.62 37.851 269.871 51.409 269.871 67.601 L 269.871 194.801 L 275.646 194.801 L 275.646 131.847 C 275.646 115.656 288.897 102.098 305.085 102.407 L 305.085 102.407 Z  M 279.87 101.43 C 282.72 99.05 285.89 97.08 289.29 95.59 C 294.1 93.49 299.29 92.4 304.54 92.4 C 304.57 92.4 304.6 92.4 304.64 92.4 L 305.18 92.41 C 305.21 92.41 305.25 92.41 305.28 92.41 C 315.45 92.61 325.15 96.79 332.28 104.06 C 339.4 111.32 343.4 121.1 343.39 131.28 L 343.39 131.28 L 343.39 239.82 C 343.39 239.82 343.39 239.82 343.39 239.82 C 343.39 251.28 342.07 262.7 339.44 273.85 C 339.44 273.85 339.44 273.85 339.44 273.85 L 320.31 355.18 C 320.31 355.18 320.31 355.18 320.31 355.18 C 318 364.97 312.46 373.7 304.57 379.95 C 296.68 386.2 286.91 389.6 276.85 389.6 C 276.85 389.6 276.85 389.6 276.85 389.6 L 134.21 389.6 C 134.21 389.6 134.21 389.6 134.21 389.6 C 119.94 389.6 106.5 382.76 98.1 371.21 C 98.1 371.21 98.1 371.21 98.1 371.21 L 7.44 246.54 C 2.61 239.91 0 231.91 0 223.7 C -0.01 211.27 5.95 199.56 16.01 192.24 C 22.64 187.41 30.64 184.8 38.85 184.8 C 51.28 184.79 62.99 190.75 70.31 200.81 C 70.31 200.81 70.31 200.81 70.31 200.81 L 75.07 207.35 L 75.07 67.75 C 75.07 57.58 79.07 47.8 86.19 40.53 C 93.32 33.27 103.02 29.08 113.19 28.88 C 113.22 28.88 113.26 28.88 113.29 28.88 L 113.83 28.88 C 113.86 28.88 113.9 28.88 113.93 28.88 C 119.18 28.88 124.37 29.96 129.18 32.07 C 132.58 33.56 135.76 35.53 138.61 37.92 C 138.85 27.91 142.96 18.38 150.05 11.32 C 157.15 4.26 166.71 0.2 176.71 0.01 C 176.75 0.01 176.78 0.01 176.81 0.01 L 177.36 0 C 177.39 0 177.42 0 177.45 0 C 182.7 0 187.89 1.09 192.7 3.19 C 197.33 5.22 201.51 8.12 205.03 11.74 C 211.69 18.55 215.68 27.53 216.27 37.03 C 223.03 31.46 231.48 28.33 240.24 28.16 C 240.27 28.16 240.3 28.16 240.34 28.16 L 240.88 28.16 C 240.91 28.16 240.95 28.16 240.98 28.16 C 246.23 28.16 251.42 29.24 256.23 31.34 C 260.85 33.37 265.04 36.27 268.56 39.89 C 275.8 47.29 279.86 57.24 279.87 67.59 C 279.87 67.59 279.87 67.6 279.87 67.6 L 279.87 101.43 Z " fill-rule="evenodd" fill="rgb(77,124,32)"/><mask id="_mask_wgREZw2W5jLqDOV4GTBWk1DEqGNJETGd" x="-200%" y="-200%" width="400%" height="400%"><rect x="-200%" y="-200%" width="400%" height="400%" style="fill:white;"/><path d=" M 305.085 102.407 C 288.897 102.098 275.646 115.656 275.646 131.847 L 275.646 194.801 L 269.871 194.801 L 269.871 67.601 C 269.871 51.409 256.62 37.851 240.433 38.161 C 224.746 38.461 212.122 51.271 212.122 67.031 L 212.122 194.801 L 206.347 194.801 L 206.347 39.448 C 206.347 23.256 193.096 9.698 176.908 10.008 C 161.221 10.308 148.597 23.119 148.597 38.878 L 148.597 194.801 L 142.822 194.801 L 142.822 68.323 C 142.822 52.131 129.571 38.573 113.384 38.883 C 97.697 39.183 85.073 51.993 85.073 67.752 L 85.073 238.108 L 62.227 206.693 C 52.848 193.796 34.789 190.944 21.891 200.324 C 8.995 209.704 6.143 227.762 15.523 240.66 L 106.19 365.33 C 112.71 374.296 123.127 379.6 134.212 379.6 L 276.847 379.6 C 292.925 379.6 306.892 368.538 310.575 352.886 L 329.71 271.561 C 332.158 261.157 333.395 250.505 333.395 239.817 L 333.395 131.277 C 333.396 115.518 320.772 102.708 305.085 102.407 L 305.085 102.407 Z " fill="black" stroke="none"/></mask><path d=" M 305.085 102.407 C 288.897 102.098 275.646 115.656 275.646 131.847 L 275.646 194.801 L 269.871 194.801 L 269.871 67.601 C 269.871 51.409 256.62 37.851 240.433 38.161 C 224.746 38.461 212.122 51.271 212.122 67.031 L 212.122 194.801 L 206.347 194.801 L 206.347 39.448 C 206.347 23.256 193.096 9.698 176.908 10.008 C 161.221 10.308 148.597 23.119 148.597 38.878 L 148.597 194.801 L 142.822 194.801 L 142.822 68.323 C 142.822 52.131 129.571 38.573 113.384 38.883 C 97.697 39.183 85.073 51.993 85.073 67.752 L 85.073 238.108 L 62.227 206.693 C 52.848 193.796 34.789 190.944 21.891 200.324 C 8.995 209.704 6.143 227.762 15.523 240.66 L 106.19 365.33 C 112.71 374.296 123.127 379.6 134.212 379.6 L 276.847 379.6 C 292.925 379.6 306.892 368.538 310.575 352.886 L 329.71 271.561 C 332.158 261.157 333.395 250.505 333.395 239.817 L 333.395 131.277 C 333.396 115.518 320.772 102.708 305.085 102.407 L 305.085 102.407 Z " fill="rgb(136,204,0)" mask="url(#_mask_wgREZw2W5jLqDOV4GTBWk1DEqGNJETGd)" vector-effect="non-scaling-stroke" stroke-width="20" stroke="rgb(77,124,32)" stroke-linejoin="miter" stroke-linecap="butt" stroke-miterlimit="4"/><path d=" M 305.085 102.407 C 288.897 102.098 275.646 115.656 275.646 131.847 L 275.646 194.801 L 269.871 194.801 L 269.871 67.601 C 269.871 51.409 256.62 37.851 240.433 38.161 C 224.746 38.461 212.122 51.271 212.122 67.031 L 212.122 194.801 L 206.347 194.801 L 206.347 39.448 C 206.347 23.256 193.096 9.698 176.908 10.008 C 161.221 10.308 148.597 23.119 148.597 38.878 L 148.597 194.801 L 142.822 194.801 L 142.822 68.323 C 142.822 52.131 129.571 38.573 113.384 38.883 C 97.697 39.183 85.073 51.993 85.073 67.752 L 85.073 238.108 L 62.227 206.693 C 52.848 193.796 34.789 190.944 21.891 200.324 C 8.995 209.704 6.143 227.762 15.523 240.66 L 106.19 365.33 C 112.71 374.296 123.127 379.6 134.212 379.6 L 276.847 379.6 C 292.925 379.6 306.892 368.538 310.575 352.886 L 329.71 271.561 C 332.158 261.157 333.395 250.505 333.395 239.817 L 333.395 131.277 C 333.396 115.518 320.772 102.708 305.085 102.407 L 305.085 102.407 Z " fill="rgb(136,204,0)"/><path d=" M 361.597 102.407 C 377.785 102.098 391.035 115.656 391.035 131.847 L 391.035 194.801 L 396.81 194.801 L 396.81 67.601 C 396.81 51.409 410.061 37.851 426.249 38.161 C 441.936 38.461 454.56 51.271 454.56 67.031 L 454.56 194.801 L 460.335 194.801 L 460.335 39.448 C 460.335 23.256 473.586 9.698 489.773 10.008 C 505.46 10.308 518.084 23.119 518.084 38.878 L 518.084 194.801 L 523.859 194.801 L 523.859 68.323 C 523.859 52.131 537.11 38.573 553.298 38.883 C 568.985 39.183 581.609 51.993 581.609 67.752 L 581.609 238.108 L 604.455 206.693 C 613.834 193.796 631.892 190.944 644.791 200.324 C 657.687 209.704 660.538 227.762 651.159 240.66 L 560.491 365.33 C 553.971 374.296 543.555 379.6 532.469 379.6 L 389.835 379.6 C 373.756 379.6 359.789 368.538 356.106 352.886 L 336.971 271.561 C 334.523 261.157 333.287 250.505 333.287 239.817 L 333.287 131.277 C 333.286 115.518 345.91 102.708 361.597 102.407 L 361.597 102.407 Z  M 528.07 37.92 C 530.92 35.53 534.1 33.56 537.5 32.07 C 542.31 29.96 547.5 28.88 552.75 28.88 C 552.79 28.88 552.82 28.88 552.85 28.88 L 553.39 28.88 C 553.43 28.88 553.46 28.88 553.49 28.88 C 563.67 29.08 573.37 33.27 580.49 40.53 C 587.62 47.8 591.61 57.58 591.61 67.75 L 591.61 207.35 L 596.37 200.81 C 596.37 200.81 596.37 200.81 596.37 200.81 C 603.69 190.75 615.4 184.79 627.83 184.8 C 636.04 184.8 644.04 187.41 650.68 192.24 C 660.73 199.56 666.69 211.27 666.68 223.7 C 666.68 231.91 664.07 239.91 659.24 246.54 L 568.58 371.21 C 568.58 371.21 568.58 371.21 568.58 371.21 C 560.18 382.76 546.74 389.6 532.47 389.6 C 532.47 389.6 532.47 389.6 532.47 389.6 L 389.83 389.6 C 389.83 389.6 389.83 389.6 389.83 389.6 C 379.77 389.6 370 386.2 362.11 379.95 C 354.23 373.7 348.68 364.97 346.37 355.18 C 346.37 355.18 346.37 355.18 346.37 355.18 L 327.24 273.85 C 327.24 273.85 327.24 273.85 327.24 273.85 C 324.61 262.7 323.29 251.28 323.29 239.82 C 323.29 239.82 323.29 239.82 323.29 239.82 L 323.29 131.28 L 323.29 131.28 C 323.28 121.1 327.28 111.32 334.4 104.06 C 341.53 96.79 351.23 92.61 361.4 92.41 C 361.44 92.41 361.47 92.41 361.5 92.41 L 362.04 92.4 C 362.08 92.4 362.11 92.4 362.14 92.4 C 367.39 92.4 372.58 93.49 377.39 95.59 C 380.79 97.08 383.96 99.05 386.81 101.43 L 386.81 67.6 C 386.81 67.6 386.81 67.59 386.81 67.59 C 386.82 57.24 390.89 47.29 398.12 39.89 C 401.64 36.27 405.83 33.37 410.45 31.34 C 415.26 29.24 420.46 28.16 425.7 28.16 C 425.74 28.16 425.77 28.16 425.8 28.16 L 426.34 28.16 C 426.38 28.16 426.41 28.16 426.44 28.16 C 435.2 28.33 443.65 31.46 450.41 37.03 C 451 27.53 454.99 18.55 461.65 11.74 C 465.17 8.12 469.36 5.22 473.98 3.19 C 478.79 1.09 483.98 0 489.23 0 C 489.26 0 489.29 0 489.33 0 L 489.87 0.01 C 489.9 0.01 489.93 0.01 489.97 0.01 C 499.98 0.2 509.53 4.26 516.63 11.32 C 523.73 18.38 527.83 27.91 528.07 37.92 Z " fill-rule="evenodd" fill="rgb(77,124,32)"/><mask id="_mask_GtW982g0MqkPPf7K9iBScqO6PQ7Yy6is" x="-200%" y="-200%" width="400%" height="400%"><rect x="-200%" y="-200%" width="400%" height="400%" style="fill:white;"/><path d=" M 361.597 102.407 C 377.785 102.098 391.035 115.656 391.035 131.847 L 391.035 194.801 L 396.81 194.801 L 396.81 67.601 C 396.81 51.409 410.061 37.851 426.249 38.161 C 441.936 38.461 454.56 51.271 454.56 67.031 L 454.56 194.801 L 460.335 194.801 L 460.335 39.448 C 460.335 23.256 473.586 9.698 489.773 10.008 C 505.46 10.308 518.084 23.119 518.084 38.878 L 518.084 194.801 L 523.859 194.801 L 523.859 68.323 C 523.859 52.131 537.11 38.573 553.298 38.883 C 568.985 39.183 581.609 51.993 581.609 67.752 L 581.609 238.108 L 604.455 206.693 C 613.834 193.796 631.892 190.944 644.791 200.324 C 657.687 209.704 660.538 227.762 651.159 240.66 L 560.491 365.33 C 553.971 374.296 543.555 379.6 532.469 379.6 L 389.835 379.6 C 373.756 379.6 359.789 368.538 356.106 352.886 L 336.971 271.561 C 334.523 261.157 333.287 250.505 333.287 239.817 L 333.287 131.277 C 333.286 115.518 345.91 102.708 361.597 102.407 L 361.597 102.407 Z " fill="black" stroke="none"/></mask><path d=" M 361.597 102.407 C 377.785 102.098 391.035 115.656 391.035 131.847 L 391.035 194.801 L 396.81 194.801 L 396.81 67.601 C 396.81 51.409 410.061 37.851 426.249 38.161 C 441.936 38.461 454.56 51.271 454.56 67.031 L 454.56 194.801 L 460.335 194.801 L 460.335 39.448 C 460.335 23.256 473.586 9.698 489.773 10.008 C 505.46 10.308 518.084 23.119 518.084 38.878 L 518.084 194.801 L 523.859 194.801 L 523.859 68.323 C 523.859 52.131 537.11 38.573 553.298 38.883 C 568.985 39.183 581.609 51.993 581.609 67.752 L 581.609 238.108 L 604.455 206.693 C 613.834 193.796 631.892 190.944 644.791 200.324 C 657.687 209.704 660.538 227.762 651.159 240.66 L 560.491 365.33 C 553.971 374.296 543.555 379.6 532.469 379.6 L 389.835 379.6 C 373.756 379.6 359.789 368.538 356.106 352.886 L 336.971 271.561 C 334.523 261.157 333.287 250.505 333.287 239.817 L 333.287 131.277 C 333.286 115.518 345.91 102.708 361.597 102.407 L 361.597 102.407 Z " fill="rgb(136,204,0)" mask="url(#_mask_GtW982g0MqkPPf7K9iBScqO6PQ7Yy6is)" vector-effect="non-scaling-stroke" stroke-width="20" stroke="rgb(77,124,32)" stroke-linejoin="miter" stroke-linecap="butt" stroke-miterlimit="4"/><path d=" M 361.597 102.407 C 377.785 102.098 391.035 115.656 391.035 131.847 L 391.035 194.801 L 396.81 194.801 L 396.81 67.601 C 396.81 51.409 410.061 37.851 426.249 38.161 C 441.936 38.461 454.56 51.271 454.56 67.031 L 454.56 194.801 L 460.335 194.801 L 460.335 39.448 C 460.335 23.256 473.586 9.698 489.773 10.008 C 505.46 10.308 518.084 23.119 518.084 38.878 L 518.084 194.801 L 523.859 194.801 L 523.859 68.323 C 523.859 52.131 537.11 38.573 553.298 38.883 C 568.985 39.183 581.609 51.993 581.609 67.752 L 581.609 238.108 L 604.455 206.693 C 613.834 193.796 631.892 190.944 644.791 200.324 C 657.687 209.704 660.538 227.762 651.159 240.66 L 560.491 365.33 C 553.971 374.296 543.555 379.6 532.469 379.6 L 389.835 379.6 C 373.756 379.6 359.789 368.538 356.106 352.886 L 336.971 271.561 C 334.523 261.157 333.287 250.505 333.287 239.817 L 333.287 131.277 C 333.286 115.518 345.91 102.708 361.597 102.407 L 361.597 102.407 Z " fill="rgb(136,204,0)"/></g></g></svg>