<?xml version="1.0" encoding="UTF-8" standalone="no"?>
<!-- Generator: Gravit.io -->
<svg xmlns="http://www.w3.org/2000/svg" xmlns:xlink="http://www.w3.org/1999/xlink" style="isolation:isolate" viewBox="0 0 300 300" width="300pt" height="300pt">
  <g>
    <g class="lefthand">
      <path d=" M 44.123 251 L 72.979 251 C 75.635 251 77.788 248.847 77.788 246.191 L 77.788 164.434 C 77.788 161.778 75.635 159.625 72.979 159.625 L 44.123 159.625 C 41.467 159.625 39.314 161.778 39.314 164.434 L 39.314 246.191 C 39.314 248.847 41.467 251 44.123 251 Z " fill="rgb(77,124,32)" />
      <path d=" M 104.844 164.347 L 121.071 135.579 L 134.277 60.733 C 134.864 57.419 137.311 54.548 140.625 53.952 C 142.92 53.521 145.288 54.135 147.086 55.626 C 148.884 57.117 149.925 59.33 149.926 61.666 L 149.926 145.197 L 140.409 199.142 C 137.569 215.229 123.589 226.955 107.254 226.954 L 72.979 226.954 L 72.979 169.243 L 96.467 169.243 C 99.939 169.243 103.142 167.372 104.844 164.347 Z " fill="rgb(136,204,0)" />
      <path d=" M 107.258 231.779 L 107.258 231.779 L 68.151 231.779 L 68.151 164.421 L 96.474 164.421 C 96.474 164.421 96.474 164.421 96.474 164.421 C 98.202 164.421 99.8 163.485 100.635 161.988 C 100.635 161.973 100.649 161.973 100.649 161.973 L 116.459 133.925 L 129.519 59.9 C 129.965 57.366 131.117 55.004 132.845 53.104 C 134.645 51.088 137.064 49.72 139.728 49.216 C 140.505 49.072 141.283 49 142.075 49 C 145.027 49 147.892 50.022 150.167 51.909 C 153.061 54.313 154.746 57.898 154.746 61.657 C 154.746 61.657 154.746 61.671 154.746 61.671 L 154.746 145.616 L 145.156 199.986 C 145.156 199.986 145.156 199.986 145.156 199.986 C 143.587 208.885 138.921 216.963 131.996 222.78 C 125.07 228.583 116.301 231.779 107.258 231.779 C 107.258 231.779 107.258 231.779 107.258 231.779 Z  M 109.044 166.711 L 125.675 137.236 L 139.022 61.57 C 139.022 61.57 139.022 61.556 139.022 61.556 C 139.166 60.807 139.497 60.116 140.016 59.554 C 140.405 59.108 140.937 58.806 141.513 58.69 C 141.7 58.662 141.888 58.647 142.075 58.647 C 142.78 58.647 143.457 58.892 144.004 59.338 C 144.695 59.914 145.099 60.764 145.099 61.671 L 145.099 144.781 L 135.653 198.302 C 134.487 204.983 130.988 211.03 125.79 215.379 C 120.606 219.742 114.04 222.132 107.258 222.132 L 107.258 222.132 L 77.798 222.132 L 77.798 174.069 L 96.459 174.069 C 101.672 174.069 106.495 171.246 109.044 166.711 Z " fill-rule="evenodd" fill="rgb(77,124,32)" />
    </g>
    <g class="righthand">
      <path d=" M 255.877 251 L 227.022 251 C 224.366 251 222.213 248.847 222.213 246.191 L 222.213 164.434 C 222.213 161.778 224.366 159.625 227.022 159.625 L 255.877 159.625 C 258.533 159.625 260.686 161.778 260.686 164.434 L 260.686 246.191 C 260.686 248.847 258.533 251 255.877 251 Z " fill="rgb(77,124,32)" />
      <path d=" M 195.156 164.347 L 178.93 135.579 L 165.723 60.733 C 165.137 57.419 162.689 54.548 159.375 53.952 C 157.08 53.521 154.712 54.135 152.914 55.626 C 151.117 57.117 150.076 59.33 150.074 61.666 L 150.074 145.197 L 159.592 199.142 C 162.432 215.229 176.411 226.955 192.746 226.954 L 227.022 226.954 L 227.022 169.243 L 203.534 169.243 C 200.061 169.243 196.858 167.372 195.156 164.347 Z " fill="rgb(136,204,0)" />
      <path d=" M 192.742 231.779 L 192.742 231.779 L 231.849 231.779 L 231.849 164.421 L 203.527 164.421 C 203.527 164.421 203.527 164.421 203.527 164.421 C 201.799 164.421 200.201 163.485 199.365 161.988 C 199.365 161.973 199.351 161.973 199.351 161.973 L 183.541 133.925 L 170.481 59.9 C 170.035 57.366 168.883 55.004 167.155 53.104 C 165.355 51.088 162.936 49.72 160.272 49.216 C 159.495 49.072 158.717 49 157.925 49 C 154.974 49 152.108 50.022 149.833 51.909 C 146.939 54.313 145.254 57.898 145.254 61.657 C 145.254 61.657 145.254 61.671 145.254 61.671 L 145.254 145.616 L 154.844 199.986 C 154.844 199.986 154.844 199.986 154.844 199.986 C 156.414 208.885 161.079 216.963 168.005 222.78 C 174.93 228.583 183.699 231.779 192.742 231.779 C 192.742 231.779 192.742 231.779 192.742 231.779 Z  M 190.956 166.711 L 174.326 137.236 L 160.978 61.57 C 160.978 61.57 160.978 61.556 160.978 61.556 C 160.834 60.807 160.503 60.116 159.984 59.554 C 159.596 59.108 159.063 58.806 158.487 58.69 C 158.3 58.662 158.113 58.647 157.925 58.647 C 157.22 58.647 156.543 58.892 155.996 59.338 C 155.305 59.914 154.902 60.764 154.902 61.671 L 154.902 144.781 L 164.347 198.302 C 165.514 204.983 169.013 211.03 174.211 215.379 C 179.394 219.742 185.96 222.132 192.742 222.132 L 192.742 222.132 L 222.202 222.132 L 222.202 174.069 L 203.541 174.069 C 198.329 174.069 193.505 171.246 190.956 166.711 Z " fill-rule="evenodd" fill="rgb(77,124,32)" />
    </g>
  </g>
</svg>